<?xml version="1.0" encoding="utf-8"?>
<!-- Generator: Adobe Illustrator 23.0.2, SVG Export Plug-In . SVG Version: 6.00 Build 0)  -->
<svg version="1.1" id="Dark_Variants" xmlns="http://www.w3.org/2000/svg" xmlns:xlink="http://www.w3.org/1999/xlink" x="0px"
	 y="0px" viewBox="0 0 911.48 136.07" style="enable-background:new 0 0 911.48 136.07;" xml:space="preserve">
<style type="text/css">
	.st0{fill:#333333;}
	.st1{fill:#108CBD;}
	.st2{fill:none;}
	.st3{fill:#278AC4;}
	.st4{opacity:0.5;}
</style>
<g id="Shortened_Logo_1_">
	<g>
		<path class="st0" d="M91.83,54.07c0-14.03-10.52-25.44-23.46-25.44S44.92,40.05,44.92,54.07c0,8.51,3.87,16.05,9.8,20.68
			c-1.35,1.54-2.67,3.32-3.95,5.31c1.32,0.14,2.6,0.62,3.71,1.43c1.1-1.65,2.22-3.12,3.37-4.4c3.25,1.77,6.86,2.71,10.52,2.71
			c3.66,0,7.26-0.94,10.52-2.71c1.11,1.24,2.19,2.66,3.25,4.23l0.01-0.01c0.01,0.01,0.01,0.01,0.02,0.02l2.62-3.01
			c-0.91-1.29-1.83-2.48-2.78-3.56C87.96,70.13,91.83,62.59,91.83,54.07z M48.81,54.07c0-11.88,8.78-21.55,19.56-21.55
			c10.79,0,19.56,9.67,19.56,21.55c0,11.88-8.78,21.55-19.56,21.55C57.59,75.63,48.81,65.95,48.81,54.07z"/>
		<path class="st1" d="M68.41,112.63c-1.28,0-2.5-0.55-3.34-1.52L46.6,89.94c-1.61-1.84-1.42-4.64,0.43-6.25
			c1.85-1.61,4.65-1.42,6.25,0.43l15.13,17.34l33.92-38.93c1.61-1.85,4.41-2.04,6.25-0.43c1.85,1.61,2.04,4.41,0.43,6.25
			l-37.26,42.77C70.92,112.08,69.7,112.63,68.41,112.63C68.42,112.63,68.42,112.63,68.41,112.63z"/>
		
			<ellipse transform="matrix(0.1091 -0.994 0.994 0.1091 -8.13 129.9921)" class="st2" cx="68.46" cy="69.53" rx="53.57" ry="53.57"/>
		<path class="st0" d="M68.46,15.97c-29.59,0-53.57,23.98-53.57,53.56c0,29.59,23.98,53.57,53.57,53.57
			c29.58,0,53.56-23.98,53.56-53.57C122.02,39.95,98.04,15.97,68.46,15.97z M98.3,109.21c-1.74-6.22-3.66-11.89-5.73-16.92
			l-2.84,3.29c1.86,4.77,3.6,10.12,5.19,15.96c-7.67,4.85-16.74,7.65-26.46,7.65c-9.8,0-18.96-2.85-26.66-7.78
			c1.6-5.82,3.32-11.16,5.19-15.91l-2.81-3.26c-2.06,5-3.97,10.65-5.72,16.84C26.5,100,18.78,85.65,18.78,69.53
			c0-27.39,22.28-49.67,49.68-49.67c27.39,0,49.67,22.28,49.67,49.67C118.13,85.72,110.33,100.14,98.3,109.21z"/>
	</g>
	<g>
		<path class="st0" d="M195.81,55.56h-16.57v57.42h-9.86V55.56h-11.64V51.1l11.64-3.56v-3.62c0-15.99,6.99-23.99,20.96-23.99
			c3.44,0,7.48,0.69,12.11,2.08l-2.55,7.9c-3.8-1.23-7.05-1.84-9.74-1.84c-3.72,0-6.47,1.24-8.25,3.71
			c-1.78,2.47-2.67,6.44-2.67,11.9v4.22h16.57V55.56z"/>
		<path class="st0" d="M241.26,112.98l-1.96-9.26h-0.48c-3.25,4.08-6.48,6.84-9.71,8.28c-3.23,1.44-7.25,2.17-12.08,2.17
			c-6.45,0-11.51-1.66-15.17-4.99c-3.66-3.33-5.49-8.05-5.49-14.19c0-13.14,10.51-20.03,31.53-20.66l11.04-0.36v-4.04
			c0-5.11-1.1-8.88-3.3-11.31c-2.2-2.43-5.71-3.65-10.54-3.65c-5.42,0-11.56,1.66-18.41,4.99l-3.03-7.54
			c3.21-1.74,6.72-3.11,10.54-4.1c3.82-0.99,7.65-1.48,11.49-1.48c7.76,0,13.51,1.72,17.25,5.17c3.74,3.44,5.61,8.97,5.61,16.57
			v44.41H241.26z M218.99,106.03c6.14,0,10.96-1.68,14.46-5.05c3.5-3.36,5.26-8.08,5.26-14.13v-5.88l-9.86,0.42
			c-7.84,0.28-13.49,1.49-16.95,3.65c-3.46,2.16-5.2,5.51-5.2,10.06c0,3.56,1.08,6.27,3.24,8.13
			C212.1,105.1,215.11,106.03,218.99,106.03z"/>
		<path class="st0" d="M286,114.16c-9.42,0-16.71-2.9-21.88-8.7c-5.17-5.8-7.75-14-7.75-24.61c0-10.89,2.62-19.3,7.87-25.24
			s12.72-8.91,22.41-8.91c3.13,0,6.25,0.34,9.38,1.01c3.13,0.67,5.58,1.47,7.36,2.38l-3.03,8.37c-2.18-0.87-4.55-1.59-7.13-2.17
			c-2.57-0.57-4.85-0.86-6.83-0.86c-13.22,0-19.83,8.43-19.83,25.29c0,8,1.61,14.13,4.84,18.41c3.23,4.28,8.01,6.41,14.34,6.41
			c5.42,0,10.98-1.17,16.68-3.5v8.73C298.09,113.03,292.61,114.16,286,114.16z"/>
		<path class="st0" d="M338.93,114.16c-9.62,0-17.21-2.93-22.77-8.79c-5.56-5.86-8.34-13.99-8.34-24.4c0-10.49,2.58-18.82,7.75-25
			c5.17-6.18,12.1-9.26,20.81-9.26c8.15,0,14.61,2.68,19.36,8.05c4.75,5.36,7.13,12.44,7.13,21.23v6.23h-44.83
			c0.2,7.64,2.13,13.44,5.79,17.4c3.66,3.96,8.82,5.94,15.47,5.94c7.01,0,13.93-1.46,20.78-4.39v8.79
			c-3.48,1.51-6.78,2.58-9.89,3.24C347.08,113.84,343.33,114.16,338.93,114.16z M336.26,54.96c-5.23,0-9.39,1.7-12.5,5.11
			c-3.11,3.41-4.94,8.12-5.49,14.13h34.02c0-6.21-1.39-10.97-4.16-14.28C345.37,56.62,341.41,54.96,336.26,54.96z"/>
		<path class="st3" d="M394.24,106.03c1.74,0,3.42-0.13,5.05-0.39c1.62-0.26,2.91-0.52,3.86-0.8v7.54
			c-1.07,0.52-2.64,0.94-4.72,1.28c-2.08,0.34-3.95,0.5-5.61,0.5c-12.59,0-18.88-6.63-18.88-19.89V55.56h-9.32v-4.75l9.32-4.1
			l4.16-13.89h5.7V47.9h18.88v7.66h-18.88v38.3c0,3.92,0.93,6.93,2.79,9.03C388.44,104.98,390.99,106.03,394.24,106.03z"/>
		<path class="st3" d="M437.2,114.16c-9.62,0-17.21-2.93-22.77-8.79c-5.56-5.86-8.34-13.99-8.34-24.4c0-10.49,2.58-18.82,7.75-25
			c5.17-6.18,12.1-9.26,20.81-9.26c8.15,0,14.61,2.68,19.36,8.05c4.75,5.36,7.13,12.44,7.13,21.23v6.23H416.3
			c0.2,7.64,2.13,13.44,5.79,17.4c3.66,3.96,8.82,5.94,15.47,5.94c7.01,0,13.93-1.46,20.78-4.39v8.79
			c-3.48,1.51-6.78,2.58-9.89,3.24C445.34,113.84,441.59,114.16,437.2,114.16z M434.52,54.96c-5.23,0-9.39,1.7-12.5,5.11
			c-3.11,3.41-4.94,8.12-5.49,14.13h34.02c0-6.21-1.39-10.97-4.16-14.28C443.63,56.62,439.67,54.96,434.52,54.96z"/>
		<path class="st3" d="M497.49,114.16c-9.42,0-16.71-2.9-21.88-8.7c-5.17-5.8-7.75-14-7.75-24.61c0-10.89,2.62-19.3,7.87-25.24
			c5.25-5.94,12.72-8.91,22.41-8.91c3.13,0,6.25,0.34,9.38,1.01c3.13,0.67,5.58,1.47,7.36,2.38l-3.03,8.37
			c-2.18-0.87-4.55-1.59-7.13-2.17c-2.57-0.57-4.85-0.86-6.83-0.86c-13.22,0-19.83,8.43-19.83,25.29c0,8,1.61,14.13,4.84,18.41
			c3.23,4.28,8.01,6.41,14.34,6.41c5.42,0,10.99-1.17,16.69-3.5v8.73C509.58,113.03,504.1,114.16,497.49,114.16z"/>
	</g>
</g>
<g>
	<path class="st0" d="M560.35,98.57l-0.06-0.09c-0.92,1.17-2,1.94-3.24,2.31c-1.24,0.37-2.73,0.56-4.45,0.56
		c-3.23,0-5.19-0.58-5.9-1.74c-0.42-0.77-0.55-1.85-0.37-3.25c0.38-1.36,0.76-2.56,1.15-3.58c0.38-1.03,0.88-2,1.49-2.91
		c0.61-0.91,1.37-1.68,2.29-2.29c1.52-0.97,3.75-1.45,6.71-1.45c1.33,0,2.63,0.14,3.9,0.42c1.38,0.48,1.98,1.18,1.82,2.11h0.19
		l1.58-4.36c0.26-0.89,0.44-1.56,0.52-2.02c0.25-1.37-0.11-2.23-1.08-2.6c-0.96-0.37-2.26-0.55-3.89-0.55
		c-1.89,0-3.28,0.31-4.19,0.94c-0.56,0.38-0.98,0.8-1.25,1.27c-0.27,0.46-0.54,1.14-0.81,2.02h-3.27c0.87-2.76,2.24-4.75,4.1-5.96
		c0.91-0.55,1.92-0.9,3.03-1.05c1.11-0.15,2.36-0.22,3.73-0.22c1.85,0,3.34,0.14,4.45,0.41c1.12,0.28,1.89,0.81,2.31,1.6
		c0.39,0.77,0.45,1.93,0.17,3.47c-0.18,0.98-0.43,1.95-0.77,2.91l-5.92,16.53h-3.18L560.35,98.57z M552.32,90.3
		c-0.65,0.58-1.14,1.27-1.46,2.06c-0.32,0.79-0.67,1.86-1.04,3.21c-0.01,0.35,0,0.77,0.01,1.26c0.15,0.63,0.53,1.05,1.14,1.26
		c0.61,0.2,1.61,0.3,2.99,0.3c1.55,0,2.81-0.12,3.78-0.37c0.97-0.25,1.86-0.77,2.67-1.56c1-0.97,1.66-2.38,2-4.24
		c0.15-0.83,0.15-1.41-0.01-1.75c-0.23-0.61-0.75-0.99-1.54-1.14c-0.8-0.14-1.96-0.22-3.5-0.22c-1.31,0-2.34,0.06-3.1,0.19
		C553.49,89.44,552.85,89.77,552.32,90.3z"/>
	<path class="st0" d="M578.93,79.42h0.08c0.93-1.33,2.06-2.21,3.38-2.64c1.32-0.43,2.75-0.65,4.3-0.65c2.85,0,4.63,0.61,5.33,1.83
		c0.51,0.7,0.62,1.86,0.33,3.47c-0.14,0.8-0.4,1.75-0.76,2.87l-6.04,16.76h-3.11l5.96-16.67c0.31-1.13,0.49-1.83,0.54-2.11
		c0.22-1.25,0.06-2.08-0.5-2.51c-0.56-0.43-1.61-0.64-3.15-0.64c-1.2,0-2.21,0.09-3.03,0.27c-0.81,0.18-1.63,0.58-2.45,1.19
		c-1.16,0.94-2.3,2.87-3.43,5.78l-5.31,14.7h-3.1l8.97-24.65h3.11L578.93,79.42z"/>
	<path class="st0" d="M610.9,84.44c0.36-0.79,0.6-1.54,0.73-2.26c0.16-0.91,0.05-1.59-0.34-2.03c-0.39-0.45-0.89-0.73-1.51-0.84
		c-0.62-0.11-1.37-0.17-2.25-0.17c-1.31,0-2.37,0.1-3.18,0.29c-0.81,0.19-1.55,0.55-2.21,1.08c-0.57,0.49-1.08,1.12-1.53,1.9
		c-0.46,0.78-0.85,1.59-1.19,2.43c-0.34,0.84-0.77,2.01-1.32,3.51c-1.11,2.9-1.79,4.93-2.05,6.1c-0.13,1.18-0.07,2.01,0.18,2.5
		c0.33,0.63,0.91,1.04,1.73,1.2c0.82,0.17,1.84,0.25,3.06,0.25c1.22,0,2.17-0.09,2.84-0.26c0.68-0.18,1.3-0.48,1.87-0.92
		c0.97-0.74,1.87-2.42,2.7-5.02h3.18c-1.08,3.39-2.51,5.77-4.31,7.13c-1.73,1.35-4.32,2.03-7.77,2.03c-1.79,0-3.25-0.17-4.37-0.51
		c-1.12-0.34-1.89-0.94-2.3-1.79c-0.36-0.98-0.45-2.17-0.27-3.57c0.33-1.48,1.01-3.63,2.04-6.44c1.02-2.97,1.9-5.15,2.64-6.53
		c0.74-1.38,1.66-2.6,2.74-3.65c1.9-1.82,4.55-2.73,7.98-2.73c1.58,0,2.93,0.11,4.05,0.33c1.12,0.22,1.93,0.66,2.42,1.31
		c0.58,0.76,0.71,1.99,0.41,3.67c-0.17,0.93-0.45,1.93-0.85,3H610.9z"/>
	<path class="st0" d="M621.34,86.23l-5.42,14.84h-3.1l12.75-35.22h3.1l-4.87,13.58h0.08c0.93-1.37,2.05-2.26,3.37-2.67
		c1.32-0.41,2.78-0.62,4.38-0.62c2.81,0,4.6,0.64,5.39,1.93c0.39,0.77,0.45,1.9,0.19,3.38c-0.14,0.77-0.44,1.83-0.89,3.19
		l-5.91,16.44h-3.11l5.96-16.67c0.26-0.87,0.43-1.54,0.52-2.02c0.24-1.34,0.02-2.21-0.67-2.63c-0.69-0.41-1.7-0.62-3.04-0.62
		c-2.37,0-4.2,0.52-5.5,1.55C623.44,81.67,622.37,83.52,621.34,86.23z"/>
	<path class="st0" d="M653.46,76.12c1.83,0,3.29,0.15,4.37,0.45c1.08,0.3,1.83,0.85,2.26,1.66c0.43,0.83,0.48,2.18,0.14,4.05
		c-0.23,1.28-0.93,3.54-2.09,6.75c-0.9,2.54-1.77,4.66-2.62,6.37s-1.95,3.08-3.3,4.11c-1.07,0.81-2.23,1.32-3.46,1.52
		c-1.24,0.21-2.71,0.31-4.43,0.31c-1.95,0-3.51-0.18-4.67-0.53c-1.17-0.35-1.86-1.16-2.08-2.43c-0.07-0.47-0.03-1.45,0.13-2.91
		c0.38-1.64,0.95-3.6,1.7-5.87c0.9-2.56,1.78-4.77,2.65-6.62c0.86-1.85,1.79-3.26,2.77-4.24c1.17-1.08,2.47-1.79,3.91-2.13
		C650.16,76.29,651.74,76.12,653.46,76.12z M652.4,79.13h-0.64c-1.01,0-1.9,0.09-2.67,0.26c-0.77,0.17-1.46,0.54-2.08,1.11
		c-0.67,0.6-1.29,1.53-1.87,2.78c-0.57,1.25-1.3,3.05-2.19,5.39c-0.27,0.83-0.54,1.67-0.83,2.52c-0.29,0.85-0.52,1.57-0.7,2.18
		c-0.18,0.6-0.34,1.18-0.46,1.73c-0.03,0.58-0.05,1.1-0.04,1.55c0.12,0.76,0.51,1.21,1.16,1.36c0.65,0.15,1.76,0.28,3.34,0.38
		c0.76,0,1.44-0.02,2.03-0.07s1.22-0.17,1.87-0.38s1.2-0.51,1.64-0.92c0.77-0.75,1.44-1.78,2.01-3.08c0.57-1.3,1.25-3.06,2.04-5.28
		c0.97-2.74,1.58-4.77,1.81-6.07c0.18-0.99,0.2-1.7,0.06-2.11c-0.24-0.6-0.74-0.97-1.52-1.13C654.59,79.21,653.6,79.13,652.4,79.13z
		"/>
	<path class="st0" d="M668.89,79.51l0.02,0.09c1.08-1.38,2.2-2.28,3.35-2.72c1.15-0.44,2.41-0.69,3.76-0.75
		c1.39,0,2.47,0.4,3.24,1.19c0.76,0.79,1.01,1.95,0.74,3.47c-0.15,0.82-0.58,2.19-1.3,4.13h-2.94c0.54-1.55,0.88-2.65,0.99-3.29
		c0.3-1.66-0.58-2.49-2.62-2.49c-1.53,0-2.83,0.41-3.91,1.23c-0.67,0.46-1.24,1.06-1.72,1.81s-1.05,1.98-1.7,3.68l-5.45,15.21h-3.19
		l8.94-24.65h3.03L668.89,79.51z"/>
	<path class="st0" d="M685.05,76.41h3.11l-8.9,24.65h-3.19L685.05,76.41z M688.83,65.84h3.1l-1.45,4.13h-3.11L688.83,65.84z"/>
	<path class="st0" d="M695.7,79.42h0.08c0.93-1.33,2.06-2.21,3.38-2.64c1.32-0.43,2.75-0.65,4.3-0.65c2.85,0,4.63,0.61,5.33,1.83
		c0.51,0.7,0.62,1.86,0.33,3.47c-0.14,0.8-0.4,1.75-0.76,2.87l-6.04,16.76h-3.11l5.96-16.67c0.31-1.13,0.49-1.83,0.54-2.11
		c0.22-1.25,0.06-2.08-0.5-2.51c-0.56-0.43-1.61-0.64-3.15-0.64c-1.2,0-2.21,0.09-3.03,0.27c-0.81,0.18-1.63,0.58-2.45,1.19
		c-1.16,0.94-2.3,2.87-3.43,5.78l-5.31,14.7h-3.1l8.97-24.65h3.11L695.7,79.42z"/>
	<path class="st0" d="M729.97,79.51l1.11-3.1h3.1l-8.29,23.29c-0.4,1.11-0.81,2.23-1.23,3.35c-0.42,1.13-0.82,2.08-1.2,2.86
		c-0.38,0.78-0.85,1.5-1.4,2.17s-1.22,1.29-2,1.85c-1.91,1.41-4.52,2.11-7.82,2.11c-1.43,0-2.67-0.11-3.73-0.34
		c-1.06-0.22-1.84-0.72-2.34-1.48c-0.44-0.78-0.57-1.94-0.37-3.47c0.16-0.58,0.45-1.49,0.89-2.73h3.18
		c-0.11,0.38-0.31,1.03-0.6,1.97c-0.11,1.05-0.02,1.75,0.26,2.11c0.27,0.38,0.71,0.63,1.32,0.75c0.61,0.13,1.43,0.19,2.44,0.19
		c2.37,0,4.1-0.39,5.18-1.17c0.64-0.47,1.18-1.08,1.63-1.83c0.44-0.75,0.88-1.68,1.31-2.77l1.86-5.22h-0.09
		c-0.89,1.31-1.99,2.18-3.31,2.63c-1.32,0.44-2.81,0.66-4.48,0.66c-1.41,0-2.59-0.17-3.54-0.5c-0.95-0.33-1.62-1-2.02-2
		c-0.28-0.96-0.33-2.24-0.14-3.84c0.18-0.78,0.48-1.83,0.9-3.15c0.42-1.32,0.7-2.26,0.86-2.83c1.89-5.36,3.85-8.89,5.9-10.61
		c1.84-1.54,4.18-2.3,7.02-2.3c1.93,0,3.31,0.28,4.13,0.83c0.82,0.55,1.25,1.44,1.29,2.64L729.97,79.51z M715.22,87.58
		c-0.13,0.39-0.41,1.17-0.84,2.34c-0.43,1.17-0.75,2.07-0.96,2.69c-0.21,0.62-0.38,1.23-0.51,1.82c-0.08,0.89-0.04,1.6,0.09,2.12
		c0.38,1.22,1.74,1.83,4.09,1.83c2.16,0,3.93-0.58,5.29-1.74c0.63-0.52,1.2-1.2,1.72-2.05c0.51-0.84,0.94-1.68,1.28-2.5
		c0.34-0.82,0.77-1.97,1.31-3.43c0.84-2.61,1.34-4.38,1.51-5.31l0.18-0.99c0.08-1.21-0.26-2.05-1-2.53
		c-0.74-0.48-1.87-0.72-3.39-0.72c-1.08,0-2.02,0.1-2.85,0.31c-0.82,0.21-1.57,0.62-2.25,1.24c-0.73,0.66-1.34,1.48-1.84,2.46
		C716.54,84.12,715.93,85.6,715.22,87.58z"/>
	<path class="st0" d="M753.25,76.41h3.11l-8.9,24.65h-3.19L753.25,76.41z M757.03,65.84h3.1l-1.45,4.13h-3.11L757.03,65.84z"/>
	<path class="st0" d="M774.91,79.51l4.89-13.67h3.19l-12.72,35.22h-3.1l1.06-3l-0.02-0.09c-1.77,2.25-4.39,3.38-7.85,3.38
		c-2.86,0-4.63-0.71-5.31-2.12c-0.49-1.05-0.61-2.53-0.36-4.41c0.32-1.45,0.9-3.31,1.73-5.58c0.66-1.81,1.22-3.29,1.7-4.43
		c0.47-1.14,1.06-2.28,1.76-3.43c0.7-1.15,1.47-2.08,2.33-2.8c0.98-0.85,2.02-1.46,3.11-1.82c1.09-0.37,2.41-0.57,3.94-0.62
		c3.93,0,5.79,1.13,5.6,3.38H774.91z M769.16,79.13c-1.14,0-2.16,0.11-3.07,0.32c-0.91,0.21-1.7,0.72-2.39,1.52
		c-0.72,0.76-1.34,1.71-1.86,2.84s-1.15,2.68-1.89,4.67c-0.75,1.96-1.33,3.88-1.75,5.73c-0.12,1.25-0.12,2.1,0.02,2.53
		c0.46,1.1,1.78,1.65,3.97,1.65c2.5,0,4.32-0.64,5.48-1.93c0.79-0.81,1.48-1.83,2.07-3.07c0.59-1.23,1.21-2.78,1.87-4.64
		c0.84-2.55,1.33-4.26,1.49-5.13c0.16-0.88,0.21-1.61,0.15-2.2C773.01,79.9,771.65,79.13,769.16,79.13z"/>
	<path class="st0" d="M799.05,85.37l-0.65,1.83l-0.83,2.39h-15.04l-0.51,1.46l-0.14,0.37c-0.56,1.66-0.91,2.82-1.02,3.48
		c-0.22,1.25-0.11,2.14,0.35,2.69c0.6,0.54,2.04,0.8,4.31,0.8c2.71,0,4.51-0.36,5.4-1.09c0.67-0.62,1.34-1.84,1.98-3.67h3.18
		c-0.98,2.89-2.23,4.88-3.78,5.97c-0.72,0.52-1.46,0.91-2.21,1.15c-0.75,0.25-1.53,0.41-2.34,0.48c-0.81,0.07-1.81,0.11-3.01,0.11
		c-1.91,0-3.45-0.16-4.63-0.47c-1.17-0.31-1.98-0.99-2.4-2.03c-0.28-0.69-0.31-1.91-0.1-3.66c0.16-0.73,0.34-1.45,0.56-2.15
		c0.21-0.7,0.49-1.57,0.84-2.61c0.35-1.04,0.56-1.69,0.65-1.96c1.78-5.06,3.66-8.4,5.64-10.04c1.1-0.92,2.3-1.53,3.61-1.84
		c1.31-0.31,2.83-0.46,4.56-0.46c3.32,0,5.38,0.61,6.16,1.83c0.51,0.86,0.6,2.2,0.26,4.03C799.68,83.17,799.4,84.29,799.05,85.37z
		 M795.41,86.55c0.71-2.48,1.1-3.88,1.15-4.17c0.17-0.96,0.19-1.63,0.04-2.02c-0.16-0.5-0.55-0.84-1.17-0.99
		c-0.63-0.16-1.43-0.24-2.42-0.24h-0.6c-2.64,0-4.49,0.49-5.55,1.46c-0.62,0.58-1.14,1.3-1.58,2.16c-0.44,0.86-1,2.13-1.68,3.8
		H795.41z"/>
	<path class="st0" d="M809.2,79.42h0.08c0.93-1.33,2.06-2.21,3.38-2.64c1.32-0.43,2.75-0.65,4.3-0.65c2.85,0,4.63,0.61,5.33,1.83
		c0.51,0.7,0.62,1.86,0.33,3.47c-0.14,0.8-0.4,1.75-0.76,2.87l-6.04,16.76h-3.11l5.96-16.67c0.31-1.13,0.49-1.83,0.54-2.11
		c0.22-1.25,0.06-2.08-0.5-2.51c-0.56-0.43-1.61-0.64-3.15-0.64c-1.2,0-2.21,0.09-3.03,0.27c-0.81,0.18-1.63,0.58-2.45,1.19
		c-1.16,0.94-2.3,2.87-3.43,5.78l-5.31,14.7h-3.1l8.97-24.65h3.11L809.2,79.42z"/>
	<path class="st0" d="M823.75,93.65l5.2-14.23h-2.79l1.06-3h2.83l2.15-5.97h3.11l-2.16,5.97h8.09l-1.1,3h-8.09l-5.43,15.12
		c-0.05,0.14-0.14,0.4-0.27,0.77c-0.13,0.38-0.21,0.63-0.25,0.74s-0.09,0.28-0.16,0.5c-0.1,0.75,0.03,1.24,0.37,1.48
		c0.35,0.24,0.95,0.36,1.8,0.36c1.61,0,2.77-0.55,3.48-1.65c0.14-0.26,0.3-0.59,0.47-0.99c0.16-0.4,0.37-0.95,0.62-1.67
		c0.25-0.72,0.46-1.3,0.63-1.76h3.02c-1.17,3.32-2.35,5.59-3.54,6.81c-1.48,1.47-3.43,2.21-5.85,2.21c-2.3,0-3.68-0.49-4.15-1.46
		c-0.25-0.48-0.31-1.31-0.19-2.49c0.12-0.5,0.32-1.18,0.59-2.01C823.46,94.56,823.65,93.97,823.75,93.65z"/>
	<path class="st0" d="M844.73,76.41h3.11l-8.9,24.65h-3.19L844.73,76.41z M848.51,65.84h3.1l-1.45,4.13h-3.11L848.51,65.84z"/>
	<path class="st0" d="M846.84,93.65l5.2-14.23h-2.79l1.06-3h2.83l2.15-5.97h3.11l-2.16,5.97h8.09l-1.1,3h-8.09l-5.43,15.12
		c-0.05,0.14-0.14,0.4-0.27,0.77c-0.13,0.38-0.21,0.63-0.25,0.74s-0.09,0.28-0.16,0.5c-0.1,0.75,0.03,1.24,0.37,1.48
		c0.35,0.24,0.95,0.36,1.8,0.36c1.61,0,2.77-0.55,3.48-1.65c0.14-0.26,0.3-0.59,0.47-0.99c0.16-0.4,0.37-0.95,0.62-1.67
		c0.25-0.72,0.46-1.3,0.63-1.76h3.02c-1.17,3.32-2.35,5.59-3.54,6.81c-1.48,1.47-3.43,2.21-5.85,2.21c-2.3,0-3.68-0.49-4.15-1.46
		c-0.25-0.48-0.32-1.31-0.19-2.49c0.12-0.5,0.32-1.18,0.59-2.01C846.55,94.56,846.74,93.97,846.84,93.65z"/>
	<path class="st0" d="M864.69,101.06h-1.07c0-0.61,0.03-1.41,0.08-2.4c0.05-0.99,0.08-1.69,0.09-2.1l1.12-20.15h3.27l-1.53,21.98
		h0.08l12.68-21.98h3.27l-16.06,27.23c-1.53,2.58-3.06,4.62-4.56,6.09c-1.51,1.48-3.23,2.22-5.18,2.22c-0.23,0-0.47-0.02-0.72-0.05
		c-0.25-0.03-0.49-0.06-0.73-0.09l0.99-2.87c0.34,0.09,0.66,0.14,0.97,0.14c0.79,0,1.52-0.24,2.2-0.73
		c0.68-0.49,1.28-1.09,1.81-1.82c0.53-0.73,1.17-1.76,1.92-3.09S864.54,101.32,864.69,101.06z"/>
</g>
<g class="st4">
	<rect x="547.47" y="105.11" class="st3" width="12.42" height="1.63"/>
</g>
<g class="st4">
	<rect x="738.57" y="105.11" class="st3" width="12.42" height="1.63"/>
</g>
</svg>
